# xmcd
#
# Track frame offsets: 
#        150
#        13447
#        25130
#        35712
#        45047
#        56902
#
# Disc length: 918 seconds
#
# Revision: 0
# Processed by: cddbd v1.5.2PL0 Copyright (c) Steve Scherf et al.
# Submitted via: ExactAudioCopyFreeDBPlugin 1.0
#
DISCID=49039406
DTITLE=Tammy Wynette - Always Gets It Right
DYEAR=1997
DGENRE=Country
TTITLE0=Apartment #9
TTITLE1=I Don't Wannna Play House
TTITLE2=I Still Believe In Fairytales
TTITLE3=Don't Come A Drinkin' (With Lovin' On Your Mind)
TTITLE4=Til' I Get It Right
TTITLE5=Stand By Your Man
EXTD=
EXTT0=
EXTT1=
EXTT2=
EXTT3=
EXTT4=
EXTT5=
PLAYORDER=
